<?xml version="1.0" standalone="no"?>
<!DOCTYPE svg PUBLIC "-//W3C//DTD SVG 20010904//EN"
 "http://www.w3.org/TR/2001/REC-SVG-20010904/DTD/svg10.dtd">
<svg version="1.0" xmlns="http://www.w3.org/2000/svg"
 width="640.000000pt" height="640.000000pt" viewBox="0 0 640.000000 640.000000"
 preserveAspectRatio="xMidYMid meet">
<metadata>
Created by potrace 1.11, written by Peter Selinger 2001-2013
</metadata>
<g transform="translate(0.000000,640.000000) scale(0.100000,-0.100000)"
fill="#000000" stroke="none">
<path d="M943 6359 c-5 -5 -64 -12 -129 -13 -65 -2 -127 -7 -138 -11 -10 -5
-26 -3 -36 2 -18 12 -67 6 -76 -8 -3 -5 10 -10 28 -10 26 -1 28 -3 8 -6 -53
-8 -71 -14 -66 -21 3 -5 -16 -14 -42 -22 -26 -7 -53 -20 -61 -28 -8 -7 -24
-12 -37 -9 -13 2 -22 -1 -21 -7 1 -5 -2 -11 -8 -11 -25 -4 -64 -26 -73 -41 -9
-16 -12 -16 -26 -4 -13 10 -20 10 -28 2 -7 -7 -32 -12 -55 -12 -24 0 -58 -7
-75 -16 -16 -9 -27 -11 -24 -5 4 6 2 11 -3 11 -6 0 -11 -7 -11 -15 0 -8 -4
-15 -9 -15 -5 0 -11 -9 -14 -20 -3 -11 -13 -20 -22 -20 -15 0 -15 3 -5 15 7 9
10 19 6 22 -4 4 -11 1 -16 -7 -6 -9 -10 -327 -10 -782 l0 -768 263 0 264 0 13
25 c11 20 11 27 0 40 -11 13 -8 15 16 15 26 0 29 4 33 38 11 93 1 133 -24 99
-11 -16 -13 -16 -19 -1 -9 24 -9 24 29 24 28 0 35 -4 35 -20 0 -11 7 -20 15
-20 8 0 15 -9 15 -20 0 -11 -6 -20 -14 -20 -9 0 -15 -14 -18 -40 l-4 -40 68 0
c64 0 68 1 68 23 l0 22 18 -22 c22 -30 92 -30 92 -1 0 10 5 18 10 18 6 0 10
-6 10 -14 0 -25 17 -27 54 -6 36 20 36 20 48 0 8 -12 24 -20 38 -20 19 0 32
-10 50 -40 34 -53 60 -54 60 0 l0 40 100 0 c110 0 115 -2 158 -72 16 -25 21
-46 18 -72 -3 -20 -2 -36 2 -36 4 0 13 -13 19 -30 10 -27 16 -30 53 -30 46 0
62 -12 95 -74 16 -29 24 -35 43 -31 13 2 30 12 37 22 12 15 16 16 27 4 9 -10
9 -12 1 -7 -8 4 -13 1 -13 -9 0 -19 49 -67 64 -62 6 2 24 -14 40 -37 32 -45
69 -77 135 -121 49 -33 52 -43 36 -136 -8 -41 11 -64 27 -35 11 20 60 46 88
46 43 0 170 -84 170 -112 0 -4 -18 -8 -40 -8 -39 0 -40 -1 -40 -36 0 -48 -52
-143 -93 -170 -49 -33 -99 -38 -130 -14 -14 11 -34 20 -45 20 -11 0 -25 7 -32
15 -17 20 -40 2 -40 -31 0 -21 -5 -24 -39 -24 -41 0 -51 -11 -51 -56 0 -21 5
-24 34 -24 33 0 33 0 39 -57 8 -76 26 -113 54 -113 13 0 24 8 28 21 14 44 46
-25 60 -132 3 -26 12 -55 19 -65 16 -21 18 -20 88 71 38 49 138 244 138 269 0
3 -18 6 -41 6 -34 0 -40 3 -35 16 3 9 9 27 12 40 5 21 12 24 48 24 l42 0 18
98 c9 53 19 107 22 120 3 17 11 22 37 22 l33 0 -3 178 c-3 226 -2 222 -56 222
l-43 0 -13 80 -13 80 -43 0 c-40 0 -42 2 -55 39 -13 39 -33 57 -51 46 -5 -4
-6 2 -2 11 4 12 3 15 -5 10 -16 -10 -15 6 1 23 10 11 9 13 -5 8 -14 -5 -16 -1
-12 22 7 34 -20 81 -46 81 -17 0 -35 31 -44 75 -3 11 -8 35 -12 53 l-6 32 116
0 116 0 0 40 c0 39 1 40 36 40 19 0 33 4 30 9 -3 5 -3 23 0 40 6 27 11 31 39
31 29 0 33 4 44 40 11 38 14 40 52 40 38 0 42 3 56 40 15 37 19 40 55 40 37 0
41 3 55 40 15 37 19 40 55 40 39 0 41 2 52 53 6 24 11 27 47 27 40 0 42 2 53
53 6 24 11 27 45 27 35 0 39 3 45 31 3 17 6 53 6 80 l0 49 41 0 41 0 -5 53
c-3 28 -9 64 -13 80 -6 26 -5 27 30 27 27 0 34 3 30 15 -3 8 -14 17 -24 20
-10 3 -50 32 -89 65 l-70 59 32 3 c30 3 27 5 -45 41 -49 24 -90 37 -115 37
-22 0 -53 4 -69 9 -102 31 -144 46 -144 52 0 3 -24 9 -53 12 -52 5 -188 46
-236 70 -24 12 -24 12 10 18 l34 5 -30 9 c-16 4 -38 17 -50 28 -11 10 -29 23
-40 27 -13 6 5 9 55 10 70 1 73 2 50 15 -14 8 -32 14 -41 15 -8 0 -33 9 -56
20 -42 20 -114 48 -148 56 -11 3 -29 9 -40 14 -33 14 -144 32 -250 40 -55 5
-118 11 -140 15 -91 14 -118 16 -300 18 -104 1 -195 5 -201 9 -6 4 -15 3 -21
-3z m-213 -1128 c0 -10 9 -21 19 -24 13 -3 18 -1 14 8 -2 8 4 18 15 24 15 8
22 8 25 -2 3 -9 9 -9 25 0 16 10 23 8 40 -8 12 -10 28 -16 36 -13 9 3 16 2 16
-4 0 -6 -5 -12 -11 -14 -16 -5 0 -36 22 -43 30 -10 17 -29 -22 -35 -23 -3 -30
-8 -21 -13 7 -5 10 -17 7 -27 -4 -12 1 -20 17 -25 19 -7 16 -9 -20 -12 -39 -4
-42 -6 -36 -26 4 -12 13 -26 21 -30 23 -14 4 -27 -38 -27 -27 0 -39 -4 -39
-14 0 -8 -7 -17 -16 -20 -10 -4 -13 -13 -9 -27 6 -18 3 -20 -22 -19 -62 4 -83
0 -77 -15 4 -11 0 -15 -16 -15 -16 0 -20 4 -16 15 8 23 -8 18 -34 -10 -29 -31
-46 -32 -55 -4 -6 17 -9 19 -16 8 -7 -11 -11 -12 -17 -1 -5 7 -13 12 -18 11
-14 -3 -48 13 -60 29 -8 12 -12 11 -23 -2 -11 -14 -11 -16 4 -16 25 0 12 -25
-14 -26 -17 -1 -22 3 -18 17 4 16 -2 20 -35 25 -34 6 -39 10 -34 28 3 12 6 24
6 29 0 19 30 5 30 -15 1 -23 1 -23 15 2 8 14 15 34 15 45 1 19 2 19 9 1 6 -16
9 -17 16 -5 5 8 8 24 6 37 -2 19 2 22 31 23 18 1 39 1 46 0 10 -2 11 2 2 18
-10 19 -7 25 12 22 4 0 12 8 18 19 8 15 21 20 53 20 30 0 38 3 27 10 -13 8
-12 11 5 24 11 9 24 16 29 16 5 0 3 7 -4 15 -11 13 -6 15 35 15 45 0 47 1 43
25 -3 14 -1 25 3 25 5 0 9 -8 9 -19z m230 -21 c0 -5 -4 -10 -10 -10 -5 0 -10
5 -10 10 0 6 5 10 10 10 6 0 10 -4 10 -10z m-120 -270 c0 -5 -5 -10 -11 -10
-5 0 -7 5 -4 10 3 6 8 10 11 10 2 0 4 -4 4 -10z m-367 -101 c-4 -15 -8 -17
-14 -8 -8 14 -3 29 11 29 4 0 6 -9 3 -21z m460 -24 c12 -2 31 -6 42 -8 11 -3
2 -5 -20 -6 -29 -1 -43 4 -52 18 -7 10 -9 22 -5 26 4 4 8 0 10 -9 2 -9 13 -18
25 -21z m-213 -4 c0 -13 63 -11 72 3 5 8 8 7 8 -1 0 -7 6 -13 14 -13 8 0 16
-7 20 -15 3 -8 12 -12 21 -9 8 3 15 1 15 -6 0 -6 4 -9 9 -5 6 3 15 -3 21 -14
5 -11 7 -22 3 -24 -5 -3 -44 -5 -87 -5 -45 -1 -82 -6 -86 -12 -4 -6 -8 11 -9
37 -1 26 -6 50 -11 51 -13 5 -13 22 0 22 6 0 10 -4 10 -9z m-36 -16 c18 -12
23 -23 21 -48 -4 -50 -5 -51 -12 -44 -3 4 -15 0 -25 -10 -21 -19 -34 -12 -20
12 5 9 6 34 2 56 -10 52 -4 58 34 34z m-118 -81 c3 -16 2 -26 -1 -23 -3 4 -8
19 -11 35 -3 16 -2 26 1 23 3 -4 8 -19 11 -35z m399 26 c3 -5 1 -10 -4 -10 -6
0 -11 5 -11 10 0 6 2 10 4 10 3 0 8 -4 11 -10z m-145 -70 c0 -5 -4 -10 -10
-10 -5 0 -10 5 -10 10 0 6 5 10 10 10 6 0 10 -4 10 -10z"/>
<path d="M727 4943 c-4 -3 -7 -15 -7 -25 0 -26 22 -18 27 10 3 21 -7 29 -20
15z"/>
<path d="M543 4883 c9 -2 17 -11 17 -20 0 -13 3 -13 16 -2 14 12 14 14 -3 20
-10 4 -25 7 -33 7 -10 0 -9 -2 3 -5z"/>
<path d="M6337 6213 c-2 -5 -3 -23 -1 -40 1 -18 -2 -33 -7 -33 -5 0 -9 5 -9
10 0 6 -13 10 -29 10 -35 0 -41 -20 -48 -152 l-4 -88 40 0 41 0 0 -40 0 -40
-40 0 -40 0 0 -40 0 -40 -40 0 -40 0 0 -80 0 -80 -40 0 -40 0 0 -80 0 -80 -40
0 -40 0 0 -40 0 -40 -40 0 -40 0 0 -40 0 -40 -40 0 -40 0 0 -40 0 -40 -40 0
-40 0 0 -40 0 -40 -40 0 -40 0 0 -40 0 -40 -40 0 -40 0 0 -40 0 -40 -40 0 -40
0 0 -40 0 -40 -80 0 -80 0 0 -40 0 -40 -40 0 -40 0 0 -80 0 -80 300 0 c286 0
300 -1 297 -19 -2 -10 -10 -30 -20 -44 -16 -25 -16 -26 15 -32 21 -5 33 -3 39
6 7 11 9 10 9 -3 0 -10 -4 -18 -10 -18 -5 0 -10 -4 -10 -10 0 -20 27 -10 40
15 7 14 18 25 25 25 6 0 17 6 23 12 7 7 18 13 25 13 45 3 90 20 94 36 7 25 17
24 37 -3 9 -13 14 -18 11 -11 -3 6 4 15 16 18 17 6 27 1 41 -16 l18 -24 23 28
c20 24 29 27 85 27 l62 0 0 770 c0 445 -4 770 -9 770 -5 0 -11 -7 -15 -15 -10
-26 -24 -16 -22 16 2 29 -8 48 -17 32z"/>
<path d="M3920 6200 c0 -5 5 -10 10 -10 6 0 10 5 10 10 0 6 -4 10 -10 10 -5 0
-10 -4 -10 -10z"/>
<path d="M5360 4440 l0 -40 40 0 40 0 0 -80 0 -80 40 0 40 0 0 -200 0 -200
-40 0 -40 0 0 -120 0 -120 -40 0 -40 0 0 -40 0 -40 40 0 40 0 0 -200 0 -200
471 0 c311 0 468 3 464 10 -3 6 -12 10 -20 10 -7 0 -17 15 -21 33 -4 17 -9 26
-11 20 -3 -7 -12 -13 -20 -13 -10 0 -13 6 -9 16 3 9 6 22 6 30 0 9 5 12 10 9
6 -3 10 -2 10 4 0 5 18 12 40 16 l40 7 0 261 c-1 251 -5 287 -31 287 -5 0 -9
-8 -9 -18 0 -10 -5 -23 -12 -30 -10 -10 -8 -19 6 -42 15 -27 16 -32 2 -45 -17
-18 -52 -20 -62 -4 -4 7 -12 1 -19 -17 -11 -24 -10 -31 3 -41 13 -11 8 -13
-34 -14 -111 -2 -109 -1 -107 -32 2 -28 1 -28 -42 -26 -24 2 -47 0 -51 -4 -8
-8 -65 3 -82 16 -9 7 -16 7 -24 -1 -16 -16 -108 -15 -127 2 -18 15 -81 29 -81
18 0 -14 -92 -5 -108 12 -15 15 -13 16 21 16 29 0 37 4 37 18 0 37 -13 62 -31
62 -13 0 -17 5 -12 18 5 14 3 14 -10 -3 -12 -16 -17 -17 -31 -6 -14 12 -13 15
7 31 17 14 25 16 36 7 12 -10 13 -9 4 8 -16 30 -21 110 -7 108 8 -1 10 6 6 19
-3 14 -1 19 6 14 8 -5 12 1 12 14 0 12 5 18 10 15 6 -3 10 -1 10 4 0 6 7 11
16 11 8 0 12 5 9 11 -4 5 -4 22 -1 35 5 20 10 23 20 15 9 -7 16 -7 24 1 17 17
15 38 -3 38 -19 0 -19 9 2 32 15 17 15 20 -5 41 -34 36 -28 55 21 64 36 7 42
12 43 34 0 13 3 30 8 37 5 9 -13 12 -78 12 l-86 0 5 47 c3 26 -1 62 -7 80 -11
31 -15 33 -58 33 -40 1 -43 2 -27 14 17 13 16 16 -16 40 -30 23 -43 26 -110
26 l-77 0 0 -40z m357 -412 c-3 -8 -6 -5 -6 6 -1 11 2 17 5 13 3 -3 4 -12 1
-19z m-187 -258 c0 -5 -4 -10 -10 -10 -5 0 -10 5 -10 10 0 6 5 10 10 10 6 0
10 -4 10 -10z m835 -480 c3 -6 -1 -7 -9 -4 -18 7 -21 14 -7 14 6 0 13 -4 16
-10z m-30 -9 c3 -5 1 -12 -5 -16 -5 -3 -10 1 -10 9 0 18 6 21 15 7z m-57 -102
c-3 -8 -7 -3 -11 10 -4 17 -3 21 5 13 5 -5 8 -16 6 -23z m-15 -9 c3 -11 1 -23
-4 -26 -5 -3 -9 6 -9 20 0 31 6 34 13 6z"/>
<path d="M5881 4464 c0 -11 3 -14 6 -6 3 7 2 16 -1 19 -3 4 -6 -2 -5 -13z"/>
<path d="M5990 4472 c0 -4 16 -8 35 -8 19 0 35 4 35 8 0 4 -16 8 -35 8 -19 0
-35 -4 -35 -8z"/>
<path d="M6070 4440 c0 -29 4 -40 15 -40 13 0 13 -3 3 -20 -11 -17 -10 -22 2
-30 11 -7 17 -4 22 13 6 20 6 20 7 -5 1 -15 14 -39 32 -58 26 -25 37 -30 60
-25 22 5 28 3 24 -7 -3 -8 7 -21 25 -31 16 -10 33 -29 36 -43 9 -36 50 -74 79
-74 l25 0 0 179 0 179 -165 1 -165 1 0 -40z"/>
<path d="M0 4201 l0 -199 48 -5 c26 -2 57 -7 70 -10 12 -3 28 0 34 7 10 10 17
11 31 2 15 -9 22 -7 38 13 10 13 19 18 19 12 0 -7 5 -9 10 -6 6 4 17 2 24 -4
10 -8 16 -5 26 14 15 28 28 32 36 10 8 -19 24 -20 24 -2 0 8 18 20 40 27 22 7
40 19 40 27 0 7 9 13 20 13 11 0 20 6 20 14 0 8 12 24 28 35 l27 20 -27 1
c-21 0 -28 5 -28 19 0 47 -8 51 -97 51 -75 0 -84 2 -73 15 7 8 17 12 22 9 5
-3 18 2 30 13 14 12 37 18 77 19 31 1 67 6 81 12 24 10 23 11 -13 11 -21 1
-36 5 -33 10 19 30 -133 63 -161 35 -8 -8 -24 -9 -47 -4 -19 4 -36 6 -38 5 -8
-7 -121 -15 -138 -10 -11 4 -20 15 -20 26 0 15 -7 19 -35 19 l-35 0 0 -199z
m246 24 c4 -8 16 -15 28 -15 11 0 27 -4 34 -9 17 -11 -2 -27 -43 -36 -29 -6
-29 -5 5 11 29 14 32 18 15 22 -10 2 -21 -1 -23 -7 -2 -6 -8 -11 -13 -11 -4 0
-6 7 -3 15 5 11 2 13 -10 9 -12 -4 -16 0 -16 15 0 24 18 28 26 6z m71 -1 c-3
-3 -12 -4 -19 -1 -8 3 -5 6 6 6 11 1 17 -2 13 -5z m-97 -49 c0 -8 -4 -15 -10
-15 -5 0 -10 7 -10 15 0 8 5 15 10 15 6 0 10 -7 10 -15z"/>
<path d="M1530 4225 c0 -8 4 -15 10 -15 5 0 18 -9 29 -21 13 -14 24 -18 33
-13 7 5 24 10 38 10 14 1 28 2 31 3 4 1 9 12 11 26 5 25 5 25 -73 25 -64 0
-79 -3 -79 -15z"/>
<path d="M372 4000 c0 -14 2 -19 5 -12 2 6 2 18 0 25 -3 6 -5 1 -5 -13z"/>
<path d="M5 3910 c-3 -5 1 -10 10 -10 9 0 13 5 10 10 -3 6 -8 10 -10 10 -2 0
-7 -4 -10 -10z"/>
<path d="M190 3910 c0 -5 12 -10 28 -9 24 0 25 1 7 9 -27 12 -35 12 -35 0z"/>
<path d="M62 3873 c-8 -14 -9 -24 -2 -28 12 -7 24 18 18 37 -3 8 -9 5 -16 -9z"/>
<path d="M160 3855 c0 -8 2 -15 4 -15 2 0 6 7 10 15 3 8 1 15 -4 15 -6 0 -10
-7 -10 -15z"/>
<path d="M216 3825 c-3 -8 0 -14 7 -12 7 1 11 -6 9 -17 -2 -11 1 -15 7 -11 16
9 13 55 -3 55 -8 0 -16 -7 -20 -15z"/>
<path d="M382 3815 c0 -16 2 -22 5 -12 2 9 2 23 0 30 -3 6 -5 -1 -5 -18z"/>
<path d="M345 3810 c-3 -5 -1 -10 4 -10 6 0 11 5 11 10 0 6 -2 10 -4 10 -3 0
-8 -4 -11 -10z"/>
<path d="M154 3799 c-2 -4 1 -9 8 -11 10 -4 10 -10 1 -29 -6 -13 -12 -18 -12
-11 -2 23 -57 14 -77 -13 -21 -28 -34 -32 -34 -10 0 20 -26 19 -34 -1 -3 -9
-6 -119 -6 -246 0 -200 2 -229 15 -224 9 3 15 0 15 -10 0 -8 5 -12 11 -8 7 4
10 -1 7 -12 -4 -25 -34 -25 -30 0 2 11 -1 15 -7 11 -14 -8 -14 -25 2 -58 14
-32 27 -35 27 -6 0 15 4 19 16 15 14 -5 16 -1 11 24 -5 20 -3 30 6 30 8 0 8 3
-2 9 -9 6 -10 11 -2 15 6 4 14 -7 20 -26 8 -27 9 -29 10 -9 1 19 4 21 16 11 8
-6 19 -9 25 -5 5 3 10 2 10 -3 0 -5 10 -12 22 -16 22 -5 22 -6 4 -19 -26 -19
-12 -39 19 -27 21 8 25 5 37 -20 8 -18 20 -30 32 -30 13 0 16 -5 11 -17 -8
-21 -8 -22 -6 -45 1 -12 9 -18 26 -18 23 0 25 4 25 40 l0 40 370 0 c343 0 395
4 360 25 -8 5 -8 11 -1 19 6 7 7 24 2 42 l-8 29 -13 -27 c-14 -29 -29 -37 -31
-15 -1 6 -2 21 -3 32 -1 11 -3 31 -4 45 l-2 25 -21 -25 c-20 -24 -21 -24 -16
-3 3 12 -1 30 -8 40 -13 17 -14 17 -20 1 -4 -9 -13 -14 -21 -11 -21 8 -17 30
6 36 11 3 20 10 20 16 0 13 -26 15 -34 3 -6 -10 -48 -8 -83 3 -14 4 -23 3 -23
-3 0 -17 -48 11 -54 31 -2 10 -10 15 -18 12 -8 -3 -28 0 -44 6 -16 7 -35 11
-43 10 -9 -2 -12 3 -8 13 5 13 -2 16 -41 18 -26 0 -55 0 -65 0 -12 -1 -21 6
-24 19 -4 16 -8 17 -14 7 -6 -9 -9 -3 -9 18 0 24 -4 31 -17 30 -12 -1 -19 7
-21 22 -3 18 -8 23 -23 19 -11 -3 -19 0 -18 6 3 29 -3 37 -31 37 -39 0 -80 20
-80 39 0 9 -12 24 -25 34 -25 18 -25 18 -26 -10 -1 -20 -3 -23 -6 -9 -3 11
-18 31 -33 44 -31 27 -30 62 1 62 11 0 19 5 19 10 0 6 -4 10 -10 10 -5 0 -10
6 -10 13 0 14 -28 19 -36 6z m-53 -78 c-8 -5 -11 -16 -8 -25 4 -9 2 -16 -3
-16 -11 0 -14 33 -3 43 3 4 11 7 17 7 6 0 5 -4 -3 -9z m164 -81 c3 -5 -1 -10
-9 -10 -9 0 -16 5 -16 10 0 6 4 10 9 10 6 0 13 -4 16 -10z m-85 -370 c0 -5 -4
-10 -10 -10 -5 0 -10 5 -10 10 0 6 5 10 10 10 6 0 10 -4 10 -10z m770 -65 c9
5 8 2 -1 -12 -16 -26 -36 -25 -33 1 4 32 4 32 13 17 5 -7 14 -10 21 -6z"/>
<path d="M331 3774 c0 -11 3 -14 6 -6 3 7 2 16 -1 19 -3 4 -6 -2 -5 -13z"/>
<path d="M360 3770 c0 -5 5 -10 11 -10 5 0 7 5 4 10 -3 6 -8 10 -11 10 -2 0
-4 -4 -4 -10z"/>
<path d="M6000 3730 c0 -5 7 -10 16 -10 8 0 12 5 9 10 -3 6 -10 10 -16 10 -5
0 -9 -4 -9 -10z"/>
<path d="M5955 3670 c3 -5 13 -10 21 -10 8 0 12 5 9 10 -3 6 -13 10 -21 10 -8
0 -12 -4 -9 -10z"/>
<path d="M475 3580 c-4 -6 -11 -7 -17 -4 -7 4 -8 2 -4 -4 10 -16 23 -15 30 3
6 17 0 20 -9 5z"/>
<path d="M1016 3247 c3 -10 9 -15 12 -12 3 3 0 11 -7 18 -10 9 -11 8 -5 -6z"/>
<path d="M6387 3203 c-11 -10 -8 -43 3 -43 6 0 10 11 10 25 0 26 -2 29 -13 18z"/>
<path d="M81 3174 c0 -11 3 -14 6 -6 3 7 2 16 -1 19 -3 4 -6 -2 -5 -13z"/>
<path d="M2 3110 c0 -14 2 -19 5 -12 2 6 2 18 0 25 -3 6 -5 1 -5 -13z"/>
<path d="M150 3055 c0 -8 7 -15 15 -15 8 0 15 7 15 15 0 8 -7 15 -15 15 -8 0
-15 -7 -15 -15z"/>
<path d="M213 3063 c-20 -7 -15 -23 7 -23 11 0 20 4 20 9 0 13 -12 19 -27 14z"/>
<path d="M95 3050 c-3 -5 3 -10 15 -10 12 0 18 5 15 10 -3 6 -10 10 -15 10 -5
0 -12 -4 -15 -10z"/>
<path d="M5538 2873 c-23 -6 -24 -35 -1 -31 11 2 19 -7 25 -29 5 -18 13 -33
18 -33 13 0 13 17 -1 25 -5 4 -9 21 -7 37 3 32 -4 39 -34 31z"/>
<path d="M5609 2866 c13 -16 11 -76 -2 -76 -5 0 -6 -16 -3 -35 l7 -35 -38 0
c-46 0 -42 19 -49 -272 l-5 -208 -39 0 -40 0 0 -80 0 -80 -506 0 c-474 1 -505
2 -498 18 4 9 8 27 8 40 1 12 3 22 6 22 3 0 6 8 6 19 0 12 -6 17 -18 13 -13
-3 -18 1 -18 16 0 23 18 32 62 32 32 0 32 3 12 73 -5 16 -2 18 15 12 17 -5 21
-2 21 15 0 16 -5 20 -18 16 -13 -4 -18 0 -19 14 -1 11 3 23 9 26 11 7 -9 24
-29 24 -17 0 -26 -39 -13 -55 9 -11 9 -15 1 -15 -6 0 -14 6 -17 14 -3 8 -15
11 -32 8 -34 -6 -44 -21 -31 -45 8 -13 6 -28 -6 -53 -16 -34 -35 -45 -35 -21
0 9 -2 9 -8 -1 -5 -7 -24 -13 -44 -14 -29 -1 -34 -4 -30 -20 3 -14 -2 -21 -17
-25 -11 -3 -21 -10 -21 -15 0 -6 6 -8 14 -5 15 6 46 -22 46 -41 0 -6 -7 -9
-15 -6 -18 7 -19 0 -4 -27 10 -19 4 -20 -478 -19 -268 0 -545 1 -615 0 l-128
0 0 -40 0 -40 -1002 0 c-872 0 -999 2 -982 14 12 9 23 11 29 5 16 -16 26 -10
23 13 -2 16 3 23 22 28 14 3 30 17 37 30 7 14 13 21 13 15 0 -5 9 5 20 23 11
17 26 32 34 32 7 0 19 7 26 15 7 8 21 15 32 15 10 0 18 6 17 13 -4 32 2 37 46
37 41 0 45 2 45 25 0 22 9 30 33 26 9 -1 13 11 21 60 4 19 14 44 24 55 9 10
25 32 35 47 14 22 23 26 40 21 22 -7 22 -6 3 14 -13 15 -16 29 -12 47 l6 25
-93 0 c-106 0 -147 -13 -147 -47 0 -13 -5 -23 -11 -23 -6 0 -9 -7 -5 -15 3 -8
1 -15 -5 -15 -6 0 -7 -4 -4 -10 3 -5 -3 -10 -13 -10 -11 0 -22 -7 -26 -15 -3
-8 -15 -15 -26 -15 -11 0 -20 -4 -20 -10 0 -5 -5 -10 -11 -10 -5 0 -7 5 -4 10
12 19 -10 9 -29 -14 -13 -16 -26 -21 -43 -18 -17 3 -24 0 -23 -9 4 -27 -12
-60 -26 -55 -8 3 -14 -1 -14 -9 0 -8 -6 -15 -13 -15 -7 0 -18 -9 -25 -20 -9
-15 -23 -20 -55 -20 -75 0 -87 -7 -87 -52 0 -33 -3 -38 -13 -29 -16 13 -27 5
-27 -21 0 -24 -21 -23 -27 1 -9 34 -28 31 -29 -5 -1 -40 -19 -64 -49 -64 -15
0 -25 8 -29 23 -7 21 -8 21 -19 -9 -7 -17 -21 -42 -32 -55 -20 -25 -21 -25
-202 -27 -101 -1 -194 3 -208 8 -17 7 -24 7 -20 0 4 -6 -14 -10 -47 -9 -29 0
-47 3 -40 6 6 2 12 18 12 34 0 18 -4 28 -10 24 -5 -3 -10 0 -10 8 0 7 -7 14
-15 14 -11 0 -12 -4 -5 -11 5 -5 10 -14 10 -20 0 -6 -5 -5 -11 1 -6 6 -18 9
-25 6 -19 -7 -18 21 1 37 20 17 19 37 -2 49 -16 9 -16 10 5 11 14 0 22 -6 23
-17 0 -13 2 -14 6 -4 9 23 37 51 50 51 7 0 15 11 19 25 7 30 24 33 24 5 0 -11
5 -20 11 -20 6 0 9 9 6 20 -4 16 0 20 19 20 13 0 23 -5 21 -11 -1 -6 4 -14 11
-16 6 -3 12 2 12 11 0 10 9 16 23 17 19 1 19 2 3 6 -15 4 -16 7 -5 14 12 8 12
11 -1 19 -12 8 -11 10 6 10 15 0 24 -8 28 -25 4 -14 11 -25 16 -25 15 0 12 33
-6 58 -12 18 -12 22 -2 22 8 0 19 -5 26 -12 9 -9 12 -9 12 0 0 16 37 15 43 0
3 -8 6 -6 6 5 1 9 -4 17 -10 17 -6 0 -9 17 -7 43 2 32 -2 49 -19 70 -14 18
-23 23 -26 15 -3 -8 -6 -6 -6 5 -1 25 -28 21 -34 -5 -6 -21 -5 -22 8 -5 12 17
14 16 20 -13 4 -17 4 -34 1 -37 -3 -4 -6 0 -6 8 0 11 -2 11 -10 -1 -6 -10 -10
-11 -10 -3 0 12 -18 1 -56 -35 -11 -10 -14 -4 -21 40 -4 29 -9 45 -11 36 -4
-23 -7 -23 -42 4 -35 26 -38 38 -9 33 15 -3 19 0 15 11 -3 9 -6 20 -6 25 0 5
-7 9 -15 9 -8 0 -15 7 -15 15 0 12 -16 15 -85 15 l-85 0 0 -935 c0 -845 2
-938 16 -960 15 -23 15 -25 0 -25 -14 0 -17 -8 -14 -42 2 -28 7 -42 15 -41 18
4 16 -26 -2 -33 -8 -4 -15 -10 -15 -16 0 -5 5 -6 11 -3 6 4 13 -2 15 -12 5
-17 12 -19 55 -15 47 4 49 4 49 -22 0 -14 5 -26 10 -26 6 0 10 -7 10 -15 0 -8
-7 -15 -17 -15 -19 0 -9 -13 13 -16 8 -1 18 4 21 12 8 23 18 16 19 -13 0 -16
4 -36 8 -46 6 -13 4 -17 -10 -15 -37 3 -74 -2 -74 -10 0 -5 11 -15 25 -22 32
-17 32 -29 -1 -22 -22 4 -24 2 -19 -19 3 -13 1 -30 -4 -38 -10 -15 -31 -7 -31
13 0 23 -38 26 -44 4 -3 -14 -10 -19 -20 -15 -11 5 -16 0 -16 -13 0 -11 7 -20
15 -20 8 0 15 -4 15 -9 0 -6 18 -9 40 -8 25 1 40 6 40 14 0 7 9 13 20 13 23 0
26 10 8 29 -11 10 -9 15 8 29 12 9 24 25 28 35 8 23 28 18 41 -11 5 -12 12
-22 15 -22 3 0 4 -20 2 -45 -6 -64 22 -60 58 9 12 24 16 26 19 10 2 -10 -2
-20 -8 -22 -14 -5 -15 -42 -1 -42 6 0 10 6 10 13 0 8 4 7 11 -3 8 -11 12 -12
16 -2 6 14 33 16 33 2 0 -5 9 -10 20 -10 13 0 20 7 20 18 0 10 3 22 7 25 10
11 32 -13 26 -29 -4 -11 11 -14 83 -16 49 -1 104 -1 123 1 20 1 38 -3 42 -11
7 -10 9 -10 9 0 0 6 6 12 14 12 11 0 13 -10 9 -39 -5 -37 -4 -38 21 -34 14 3
29 10 33 16 4 6 -3 8 -21 3 -29 -7 -32 0 -11 27 16 21 55 15 55 -9 0 -8 5 -14
10 -14 6 0 10 5 10 10 0 21 31 9 42 -17 11 -27 12 -27 15 -5 5 27 23 29 30 2
4 -14 13 -19 37 -18 17 1 56 1 86 0 52 -2 54 -3 32 -18 -12 -8 -22 -23 -22
-34 0 -27 88 -34 111 -8 20 22 37 24 19 3 -22 -26 -5 -26 26 0 30 26 45 28 52
5 3 -8 0 -10 -8 -5 -8 5 -11 3 -8 -5 2 -7 12 -14 22 -16 12 -2 16 2 12 13 -6
15 29 52 49 53 6 0 19 -15 30 -32 l20 -33 9 38 c8 30 14 37 34 37 20 0 22 -2
12 -15 -6 -8 -9 -19 -6 -24 4 -5 2 -12 -4 -16 -13 -8 -13 -25 0 -25 6 0 10 7
10 15 0 8 7 15 16 15 8 0 12 -4 9 -10 -3 -5 4 -11 17 -11 13 -1 38 -3 56 -5
18 -2 32 1 32 7 0 5 -6 9 -12 8 -25 -3 -39 1 -34 10 3 5 -3 11 -14 14 -11 3
-20 12 -20 21 0 13 26 15 188 16 235 2 246 1 250 -10 2 -5 9 -7 17 -4 8 3 16
-4 20 -17 5 -14 3 -25 -4 -27 -6 -2 -11 -8 -11 -13 0 -5 706 -9 1736 -9 1644
0 1737 1 1750 17 13 17 14 17 8 1 -8 -23 27 -24 60 -3 21 14 24 14 36 0 11
-13 70 -15 446 -15 l434 0 0 40 0 40 -208 0 c-153 0 -212 3 -221 12 -8 7 -11
8 -8 3 4 -7 -17 -11 -56 -12 -34 -1 -56 1 -49 3 6 3 12 13 13 22 0 14 2 13 9
-3 7 -16 9 -13 9 17 1 26 6 38 19 41 16 4 16 5 0 6 -10 0 -18 6 -18 11 0 7 6
7 19 1 10 -6 21 -7 25 -4 3 3 6 2 6 -4 0 -5 -3 -13 -7 -17 -9 -9 -11 -46 -2
-40 4 2 9 -1 11 -8 3 -7 7 -5 11 6 4 9 3 15 -2 12 -5 -3 -11 1 -14 9 -8 18 29
30 48 15 11 -9 13 -7 9 7 -2 10 -1 32 4 48 7 26 13 30 48 32 21 0 45 -3 52 -9
8 -7 12 -7 13 3 0 8 4 5 9 -6 7 -17 9 -17 9 -3 1 15 16 18 134 20 l132 3 3 59
c5 93 0 95 -210 98 -105 2 -165 6 -153 11 11 5 30 13 42 19 11 6 26 7 32 4 15
-10 14 7 -4 40 -20 39 -19 57 3 52 10 -3 23 1 30 8 16 17 15 24 -3 24 -8 0
-15 7 -15 15 0 8 -7 15 -15 15 -8 0 -15 4 -15 10 0 11 51 -9 63 -25 5 -6 7 -4
6 5 -6 54 1 68 39 81 20 6 40 17 44 23 5 8 13 8 27 -1 11 -7 26 -10 33 -8 17
7 41 45 29 45 -5 0 -12 7 -15 16 -3 8 -2 12 4 9 5 -3 14 4 20 16 9 15 15 18
23 10 37 -37 37 -43 37 929 l0 940 -272 0 -273 0 40 21 c22 12 44 25 50 30 5
5 27 9 50 9 23 0 46 5 53 12 9 9 12 9 12 1 0 -7 9 -10 23 -6 12 3 40 9 62 13
49 9 46 11 -25 14 -30 2 -63 -2 -72 -7 -26 -17 -87 18 -88 49 0 19 59 74 79
74 10 0 21 6 24 14 4 11 -18 14 -119 14 -68 0 -122 -3 -120 -7 3 -4 1 -13 -4
-20 -6 -10 -9 -8 -15 8 -8 25 -25 18 -25 -10 0 -11 -6 -19 -12 -17 -7 1 -35
-8 -61 -21 -27 -12 -52 -20 -55 -17 -3 3 0 6 6 6 19 0 13 23 -13 53 -25 28
-59 41 -36 13z m351 -17 c0 -5 -7 -9 -15 -9 -9 0 -12 6 -9 15 6 15 24 11 24
-6z m-130 -44 c0 -9 -6 -12 -15 -9 -8 4 -12 10 -9 15 8 14 24 10 24 -6z m127
-91 c-3 -3 -12 -4 -19 -1 -8 3 -5 6 6 6 11 1 17 -2 13 -5z m-5580 -306 c-3 -8
-6 -5 -6 6 -1 11 2 17 5 13 3 -3 4 -12 1 -19z m-167 -29 c0 -5 -4 -9 -10 -9
-5 0 -10 7 -10 16 0 8 5 12 10 9 6 -3 10 -10 10 -16z m4255 -59 c3 -5 1 -10
-4 -10 -6 0 -11 5 -11 10 0 6 2 10 4 10 3 0 8 -4 11 -10z m-4198 -16 c-3 -3
-12 -4 -19 -1 -8 3 -5 6 6 6 11 1 17 -2 13 -5z m2903 -792 c0 -5 10 -14 23
-20 17 -8 18 -11 5 -11 -16 -1 -25 -26 -18 -56 1 -5 3 -18 5 -27 2 -10 -2 -24
-10 -32 -11 -11 -12 -21 -3 -50 11 -36 12 -36 66 -36 l54 0 -6 -32 c-3 -18 -6
-40 -6 -48 1 -49 -1 -64 -9 -69 -5 -3 -2 -13 7 -21 9 -8 18 -14 19 -12 8 7 23
1 23 -10 0 -20 -32 -48 -56 -48 -20 0 -23 -4 -19 -30 3 -16 7 -43 10 -60 3
-22 1 -30 -10 -30 -20 0 -19 -26 1 -34 9 -3 14 -13 11 -20 -3 -8 -1 -17 6 -19
9 -3 9 -7 -1 -19 -7 -9 -9 -23 -6 -32 6 -15 7 -15 19 1 11 14 13 15 13 3 -1
-8 0 -24 1 -35 1 -17 3 -18 11 -5 7 11 10 12 10 2 0 -7 -6 -20 -14 -28 -17
-16 -46 -19 -46 -3 0 6 -7 3 -16 -5 -23 -24 -13 -50 20 -56 50 -9 44 -30 -9
-30 -25 0 -44 4 -41 9 4 5 -2 8 -11 6 -21 -3 -45 13 -38 25 3 5 0 12 -6 16 -8
4 -9 3 -5 -5 4 -6 0 -14 -8 -17 -9 -3 -16 -12 -16 -20 0 -11 -18 -14 -80 -14
-69 0 -80 -2 -81 -17 -1 -17 -2 -17 -6 0 -5 18 3 17 -210 19 -53 0 -109 4
-124 8 -19 6 -30 4 -33 -3 -5 -9 -8 -9 -12 1 -3 6 -14 12 -25 12 -10 0 -19 7
-19 15 0 9 -9 15 -21 15 -18 0 -20 -4 -15 -25 4 -14 2 -25 -4 -25 -5 0 -10 11
-10 25 0 14 -6 26 -12 27 -7 0 -19 2 -26 2 -7 1 -17 7 -21 15 -6 9 -28 14 -69
13 -50 0 -60 2 -55 15 5 13 1 12 -27 -2 -18 -9 -29 -12 -26 -6 4 6 2 19 -4 28
-10 16 -11 16 -6 1 7 -23 -21 -46 -30 -24 -3 9 -12 16 -20 16 -8 0 -14 5 -14
10 0 6 -4 10 -10 10 -5 0 -9 -5 -7 -11 1 -6 -4 -14 -10 -16 -7 -3 -13 2 -13
11 0 22 -56 50 -67 34 -5 -9 -9 -5 -13 12 -3 14 -13 26 -21 28 -12 2 -14 -5
-11 -31 3 -31 1 -34 -20 -32 -27 2 -79 23 -60 24 6 1 12 6 12 12 0 6 -7 9 -15
5 -8 -3 -15 -1 -15 3 0 5 -14 14 -31 20 -28 9 -30 9 -24 -9 4 -12 2 -20 -4
-20 -11 0 -15 14 -11 40 1 9 -6 5 -17 -9 l-19 -23 -31 31 c-20 19 -30 39 -28
51 2 12 -1 17 -10 14 -9 -4 -13 3 -11 20 0 14 5 26 11 26 5 0 4 5 -3 12 -7 7
-12 22 -12 35 0 13 -4 23 -10 23 -5 0 -10 5 -10 10 0 6 18 10 40 10 36 0 40 2
40 25 0 14 -10 39 -21 55 -13 17 -20 37 -16 49 3 12 -1 22 -11 26 -8 3 -12 8
-9 12 10 9 -13 44 -25 37 -6 -4 -8 1 -4 14 4 13 2 20 -6 19 -45 -1 -58 4 -59
26 -1 21 -1 21 -8 -3 -7 -23 -8 -23 -15 12 -8 42 -50 74 -76 58 -10 -6 -21 -3
-32 7 -15 13 -18 13 -18 2 -1 -10 -5 -9 -15 5 -7 10 -18 15 -24 12 -6 -4 -13
4 -17 18 -5 21 -11 25 -35 22 -38 -4 -135 16 -174 37 -16 9 -38 18 -47 21 -76
23 44 26 987 26 553 0 1005 -4 1005 -8z m2190 -112 l0 -120 40 0 40 0 0 -120
0 -120 -40 0 -40 0 -1 -117 c0 -65 -4 -127 -8 -138 -5 -11 -3 -28 3 -38 17
-27 -14 -44 -33 -17 -7 11 -20 20 -27 20 -20 0 -17 38 4 43 9 3 5 4 -10 4 -20
-1 -28 -7 -28 -19 0 -27 -18 -21 -22 7 -4 32 -27 19 -30 -18 -1 -15 -6 -27
-11 -27 -5 0 -7 7 -4 14 4 11 1 13 -10 9 -13 -5 -14 -3 -3 17 8 15 8 20 1 16
-15 -10 -14 7 1 22 9 9 7 12 -10 12 -13 0 -25 7 -28 15 -10 26 -51 18 -58 -10
-6 -22 -9 -24 -27 -15 -16 9 -18 14 -9 26 7 7 16 11 21 8 16 -10 9 9 -11 30
-45 46 -70 80 -70 94 0 8 3 12 7 9 7 -8 33 11 33 24 0 4 -9 7 -20 6 -11 -1
-20 -7 -20 -14 0 -16 -12 -17 -28 -1 -10 10 -14 8 -18 -10 -6 -20 -24 -32 -24
-14 1 19 29 42 44 36 9 -3 16 -1 16 5 0 6 -6 10 -12 9 -7 -2 -11 4 -9 12 4 14
4 43 0 75 -2 11 -6 12 -12 6 -13 -13 -37 5 -38 28 0 10 -4 7 -10 -8 -8 -21 -5
-28 23 -51 l32 -27 -36 0 c-36 0 -46 11 -53 57 -1 8 -3 20 -5 25 -1 6 -1 20 0
33 1 12 -4 22 -11 22 -7 0 -9 -3 -6 -7 4 -3 1 -13 -6 -21 -10 -13 -9 -14 3 -7
9 5 12 5 7 -1 -5 -5 -14 -9 -20 -9 -6 0 -17 -11 -24 -25 -7 -14 -13 -19 -13
-12 0 6 -9 12 -19 12 -14 0 -18 5 -14 20 4 15 2 19 -10 14 -9 -3 -13 -12 -10
-20 3 -8 0 -14 -6 -14 -6 0 -11 9 -11 21 0 23 -26 54 -34 40 -3 -5 -17 -8 -31
-8 -13 0 -23 3 -20 6 2 4 0 13 -6 21 -7 13 -9 13 -9 0 0 -13 -1 -13 -10 0 -9
13 -10 13 -10 0 0 -12 -2 -13 -9 -1 -7 11 -10 9 -15 -7 -4 -11 -5 -26 -4 -33
2 -8 -10 -14 -32 -16 -19 -2 -36 -8 -38 -13 -2 -6 -10 -10 -18 -10 -8 0 -14
-5 -14 -11 0 -5 4 -8 9 -5 4 3 7 -5 6 -17 -4 -35 -5 -37 -15 -37 -5 0 -7 6 -4
13 7 18 -27 47 -51 43 -14 -2 -19 -10 -18 -25 2 -15 -1 -20 -9 -15 -8 5 -9 0
-6 -14 4 -12 2 -22 -3 -22 -5 0 -9 7 -9 16 0 8 -4 13 -9 10 -5 -3 -11 1 -15 9
-3 8 -11 15 -18 14 -10 0 -10 -2 0 -6 6 -2 12 -14 12 -26 0 -21 -1 -20 -17 3
-35 51 -42 53 -51 18 -4 -18 -11 -31 -14 -28 -3 3 -12 -1 -20 -8 -13 -10 -15
-9 -10 13 2 15 0 25 -7 25 -6 0 -11 10 -11 23 0 18 -2 19 -11 7 -8 -12 -9 -8
-6 14 3 17 -1 35 -8 43 -16 15 -29 17 -20 3 3 -5 1 -19 -5 -30 -8 -15 -8 -20
1 -18 7 2 15 -6 17 -17 4 -17 3 -18 -14 -5 -16 14 -17 13 -10 -5 5 -11 11 -29
14 -39 5 -20 5 -20 13 0 7 19 8 19 8 -1 1 -17 3 -17 11 -5 5 8 10 11 10 5 0
-5 -9 -21 -20 -35 -12 -15 -18 -18 -14 -7 3 9 1 17 -5 17 -6 0 -11 9 -11 19 0
11 -8 27 -17 37 -10 10 -19 21 -19 26 -1 4 -2 16 -3 26 -2 13 -5 11 -12 -8 -6
-14 -8 -33 -5 -42 2 -10 0 -18 -5 -18 -5 0 -11 11 -15 25 -3 14 -13 25 -21 25
-9 0 -12 6 -9 18 5 17 -25 62 -42 62 -5 0 -15 -7 -22 -15 -18 -22 -40 -18 -40
8 0 31 -13 48 -29 38 -7 -5 -11 -13 -7 -19 9 -14 -19 -33 -38 -26 -11 4 -14
13 -9 32 5 21 3 24 -11 19 -21 -8 -21 12 2 29 16 13 16 13 -2 14 -11 0 -28 -7
-38 -17 -16 -15 -18 -15 -18 0 0 26 -78 100 -98 92 -16 -6 -16 -7 1 -19 22
-17 22 -30 -2 -23 -15 3 -18 0 -14 -17 4 -17 3 -18 -6 -6 -6 8 -11 26 -11 40
0 14 -5 32 -10 40 -8 13 -11 13 -22 1 -11 -11 -11 -13 1 -6 10 6 12 4 6 -5 -5
-9 -4 -11 3 -6 14 8 15 4 6 -19 -5 -13 -9 -10 -21 12 -8 15 -12 35 -10 44 3
12 -1 15 -19 11 -25 -5 -31 7 -13 25 8 8 3 11 -18 12 -89 2 -92 3 -87 16 3 7
1 16 -5 20 -6 3 -11 -1 -11 -9 0 -8 -5 -18 -12 -22 -7 -5 -9 -2 -5 9 3 9 -1
18 -9 21 -27 10 -42 7 -47 -11 -3 -11 -5 -6 -6 11 -1 24 -3 27 -16 16 -12 -10
-15 -9 -15 6 0 14 -2 16 -9 6 -7 -11 -9 -11 -14 2 -6 15 87 16 1008 16 l1015
0 0 -120z m-1923 48 c-3 -8 -6 -5 -6 6 -1 11 2 17 5 13 3 -3 4 -12 1 -19z
m-2022 -38 c3 -5 1 -10 -4 -10 -6 0 -11 5 -11 10 0 6 2 10 4 10 3 0 8 -4 11
-10z m2338 -124 c4 -10 0 -12 -14 -9 -22 6 -26 23 -5 23 8 0 16 -6 19 -14z
m-2063 -36 c0 -5 -5 -10 -11 -10 -5 0 -7 5 -4 10 3 6 8 10 11 10 2 0 4 -4 4
-10z m3017 -102 c-3 -8 -6 -5 -6 6 -1 11 2 17 5 13 3 -3 4 -12 1 -19z m-17
-27 c0 -24 -1 -24 -15 -5 -18 24 -19 31 0 31 9 0 15 -10 15 -26z m-3341 -15
c11 -10 27 -16 35 -13 8 3 17 3 21 -1 7 -8 13 -9 50 -11 31 -1 37 -41 6 -41
-11 0 -23 -5 -26 -10 -4 -6 -3 -10 2 -9 11 3 46 -12 58 -25 13 -14 45 -86 49
-109 1 -10 14 -32 29 -48 15 -17 25 -35 22 -39 -9 -14 14 -60 30 -60 16 0 19
-9 9 -34 -3 -9 -10 -14 -14 -11 -5 3 -6 -5 -2 -17 5 -21 4 -22 -11 -9 -19 15
-23 1 -5 -17 9 -9 -6 -12 -68 -12 -49 0 -85 5 -92 12 -9 9 -12 9 -12 0 0 -7
-14 -12 -35 -12 -29 0 -35 4 -36 23 l0 22 -16 -22 c-27 -39 -52 -22 -44 30 0
4 -3 7 -9 7 -5 0 -10 -4 -10 -10 0 -5 -10 -10 -21 -10 -20 0 -21 4 -15 50 4
28 3 50 -1 50 -5 0 -9 18 -9 40 -1 22 -7 46 -14 54 -6 9 -9 20 -6 25 10 16
-16 51 -39 52 -11 1 -2 5 20 8 l40 6 -23 21 c-21 19 -22 24 -10 43 10 17 10
25 0 42 -10 16 -10 24 -1 35 15 18 39 18 39 0 0 -8 5 -18 10 -21 14 -9 32 4
24 17 -4 6 -10 5 -15 -3 -7 -11 -9 -11 -9 -1 0 14 33 29 61 27 10 -1 27 -9 38
-19z m3289 -11 c-3 -3 -9 2 -12 12 -6 14 -5 15 5 6 7 -7 10 -15 7 -18z m102
-19 c0 -3 -4 -8 -10 -11 -5 -3 -10 -1 -10 4 0 6 5 11 10 11 6 0 10 -2 10 -4z
m-3205 -26 c3 -5 -3 -10 -15 -10 -12 0 -18 5 -15 10 3 6 10 10 15 10 5 0 12
-4 15 -10z m2774 -29 c-15 -5 -22 6 -14 19 6 9 10 9 16 -1 5 -8 4 -15 -2 -18z
m-62 -53 c-3 -8 -6 -5 -6 6 -1 11 2 17 5 13 3 -3 4 -12 1 -19z m613 2 c0 -5
-4 -10 -10 -10 -5 0 -10 5 -10 10 0 6 5 10 10 10 6 0 10 -4 10 -10z m117 -25
c-14 -15 -22 -1 -12 23 5 13 8 14 15 3 5 -8 3 -19 -3 -26z m55 -81 c-5 -29
-26 -27 -30 2 -2 13 3 20 16 21 15 1 18 -4 14 -23z m-4062 -30 c0 -8 -4 -12
-10 -9 -5 3 -10 10 -10 16 0 5 5 9 10 9 6 0 10 -7 10 -16z m-28 -18 c11 -10
28 -16 38 -13 12 3 20 -2 23 -15 4 -12 12 -18 24 -16 13 2 19 -4 21 -24 2 -20
-1 -28 -13 -28 -12 0 -35 -35 -35 -55 0 -2 15 -3 34 -2 28 1 32 4 29 21 -4 18
-1 17 17 -6 26 -34 38 -35 49 -6 5 13 10 17 14 11 16 -26 -21 -40 -112 -41
-81 -2 -91 0 -91 15 0 15 2 16 10 3 8 -12 10 -11 10 7 0 32 -10 53 -26 53 -19
0 -18 19 1 27 14 5 14 8 -1 24 -9 11 -23 19 -31 19 -7 0 -13 6 -14 13 0 10 -2
10 -6 0 -8 -21 -20 -15 -18 10 3 28 1 26 31 23 14 -2 35 -11 46 -20z m-117
-46 c-3 -5 -12 -10 -18 -10 -7 0 -6 4 3 10 19 12 23 12 15 0z m2515 3 c0 -5
-5 -15 -10 -23 -8 -12 -10 -11 -10 8 0 12 5 22 10 22 6 0 10 -3 10 -7z m-2765
-34 c0 -21 -4 -24 -31 -21 -27 3 -32 -2 -50 -37 -18 -39 -44 -55 -44 -28 0 8
-3 9 -8 1 -4 -6 -34 -12 -67 -13 -33 -2 -66 -7 -72 -13 -9 -7 -13 -7 -13 1 0
7 -24 11 -65 11 -36 0 -65 4 -65 10 0 5 7 7 16 3 9 -3 20 0 24 7 5 8 35 15 77
17 37 3 72 9 77 14 16 15 33 10 39 -11 7 -29 27 -25 27 5 0 15 5 25 13 24 26
-3 37 1 37 15 0 22 19 30 35 16 11 -9 15 -9 15 -1 0 6 9 11 21 11 12 0 18 4
13 11 -4 7 -1 10 7 7 8 -3 14 -16 14 -29z m297 19 c-7 -7 -8 -17 -2 -29 8 -14
6 -16 -10 -12 -11 3 -20 9 -20 13 0 21 14 40 28 40 12 0 13 -3 4 -12z m-177
-37 c2 -13 -1 -21 -11 -21 -14 0 -20 31 -7 43 9 9 13 4 18 -22z m535 9 c0 -5
-4 -10 -10 -10 -5 0 -10 5 -10 10 0 6 5 10 10 10 6 0 10 -4 10 -10z m4057 -15
c-15 -16 -22 -11 -13 10 3 9 10 13 16 10 6 -4 5 -11 -3 -20z m-5203 -47 c-4
-6 0 -14 7 -19 10 -6 4 -9 -19 -9 -18 0 -31 3 -29 8 2 4 7 15 10 24 4 11 12
15 22 12 8 -3 12 -11 9 -16z m560 13 c8 -12 -21 -48 -30 -38 -5 4 -2 12 5 16
7 5 10 14 7 20 -4 6 -3 11 3 11 5 0 12 -4 15 -9z m281 -20 c3 -5 1 -12 -5 -16
-5 -3 -10 1 -10 9 0 18 6 21 15 7z m345 -6 c0 -8 -4 -15 -10 -15 -5 0 -10 7
-10 15 0 8 5 15 10 15 6 0 10 -7 10 -15z m-375 -5 c3 -5 1 -10 -4 -10 -6 0
-11 5 -11 10 0 6 2 10 4 10 3 0 8 -4 11 -10z m-535 -60 c0 -5 -5 -10 -11 -10
-5 0 -7 5 -4 10 3 6 8 10 11 10 2 0 4 -4 4 -10z m5724 -21 c-6 -11 -24 -2 -24
11 0 5 7 7 15 4 8 -4 12 -10 9 -15z m-5586 -18 c3 -8 -1 -12 -9 -9 -7 2 -15
10 -17 17 -3 8 1 12 9 9 7 -2 15 -10 17 -17z m4729 -17 c-3 -3 -12 -4 -19 -1
-8 3 -5 6 6 6 11 1 17 -2 13 -5z m50 -40 c-3 -3 -12 -4 -19 -1 -8 3 -5 6 6 6
11 1 17 -2 13 -5z m-4037 -14 c0 -5 -5 -10 -11 -10 -5 0 -7 5 -4 10 3 6 8 10
11 10 2 0 4 -4 4 -10z m4820 -15 c0 -19 -5 -25 -20 -25 -20 0 -20 1 -3 25 22
30 23 30 23 0z m-5827 -75 c5 -20 -17 -60 -27 -49 -8 8 5 69 14 69 4 0 10 -9
13 -20z m4827 6 c0 -3 -4 -8 -10 -11 -5 -3 -10 -1 -10 4 0 6 5 11 10 11 6 0
10 -2 10 -4z m-4792 -44 c2 -7 -3 -12 -12 -12 -9 0 -16 7 -16 16 0 17 22 14
28 -4z m6052 -2 c0 -5 7 -10 15 -10 8 0 15 -4 15 -10 0 -5 -9 -10 -20 -10 -11
0 -20 2 -20 4 0 2 -3 11 -6 20 -3 9 -1 16 5 16 6 0 11 -4 11 -10z m-165 -10
c3 -5 1 -10 -4 -10 -6 0 -11 5 -11 10 0 6 2 10 4 10 3 0 8 -4 11 -10z m222
-62 c-3 -8 -6 -5 -6 6 -1 11 2 17 5 13 3 -3 4 -12 1 -19z m-6118 -59 c-18 -11
-22 -5 -14 22 7 20 8 21 17 4 8 -12 7 -20 -3 -26z m81 7 c0 -8 -4 -18 -10 -21
-5 -3 -10 3 -10 14 0 12 5 21 10 21 6 0 10 -6 10 -14z m5650 -17 c0 -5 -4 -9
-10 -9 -5 0 -10 7 -10 16 0 8 5 12 10 9 6 -3 10 -10 10 -16z m-4266 -62 c8 -8
10 -20 5 -32 -7 -19 -8 -19 -8 3 -1 13 -7 22 -16 22 -8 0 -15 5 -15 10 0 14
19 12 34 -3z m86 3 c0 -5 -4 -10 -10 -10 -5 0 -10 5 -10 10 0 6 5 10 10 10 6
0 10 -4 10 -10z m3860 -6 c0 -10 -7 -14 -22 -12 -32 5 -35 28 -4 28 17 0 26
-5 26 -16z m158 4 c-6 -17 -35 -18 -49 -2 -9 12 -6 14 21 14 20 0 30 -4 28
-12z m-3988 -8 c0 -5 -5 -10 -11 -10 -5 0 -7 5 -4 10 3 6 8 10 11 10 2 0 4 -4
4 -10z m3997 -56 c-3 -3 -12 -4 -19 -1 -8 3 -5 6 6 6 11 1 17 -2 13 -5z
m-4661 -19 c-13 -10 -24 -11 -37 -5 -10 6 -19 6 -21 1 -2 -5 -9 -3 -16 5 -11
12 -5 14 40 14 48 -1 51 -2 34 -15z m71 9 c-3 -3 -12 -4 -19 -1 -8 3 -5 6 6 6
11 1 17 -2 13 -5z m4240 -36 c-3 -8 -6 -5 -6 6 -1 11 2 17 5 13 3 -3 4 -12 1
-19z m-4357 -8 c0 -5 -12 -10 -27 -9 -25 0 -26 1 -8 9 27 12 35 12 35 0z"/>
<path d="M1250 1500 c0 -5 5 -10 10 -10 6 0 10 5 10 10 0 6 -4 10 -10 10 -5 0
-10 -4 -10 -10z"/>
<path d="M2310 762 c0 -12 19 -26 26 -19 2 2 -2 10 -11 17 -9 8 -15 8 -15 2z"/>
<path d="M4391 1374 c0 -11 3 -14 6 -6 3 7 2 16 -1 19 -3 4 -6 -2 -5 -13z"/>
<path d="M4461 1294 c0 -11 3 -14 6 -6 3 7 2 16 -1 19 -3 4 -6 -2 -5 -13z"/>
<path d="M4505 1290 c3 -5 8 -10 11 -10 2 0 4 5 4 10 0 6 -5 10 -11 10 -5 0
-7 -4 -4 -10z"/>
<path d="M4546 1277 c3 -10 9 -15 12 -12 3 3 0 11 -7 18 -10 9 -11 8 -5 -6z"/>
<path d="M4631 1244 c0 -11 3 -14 6 -6 3 7 2 16 -1 19 -3 4 -6 -2 -5 -13z"/>
<path d="M4540 1200 c-18 -6 -20 -8 -7 -9 10 -1 15 -5 12 -11 -3 -5 -2 -10 3
-10 5 0 12 9 15 20 3 11 4 20 4 19 -1 -1 -13 -5 -27 -9z"/>
<path d="M4121 1184 c0 -11 3 -14 6 -6 3 7 2 16 -1 19 -3 4 -6 -2 -5 -13z"/>
<path d="M4390 1185 c0 -8 5 -15 10 -15 6 0 10 7 10 15 0 8 -4 15 -10 15 -5 0
-10 -7 -10 -15z"/>
<path d="M4453 1165 c0 -27 4 -31 19 -27 12 3 17 10 14 19 -3 8 -6 18 -6 23 0
4 -6 10 -13 13 -10 4 -14 -4 -14 -28z"/>
<path d="M4787 1193 c-12 -11 -8 -23 7 -23 7 0 19 7 26 15 10 12 9 15 -7 15
-11 0 -23 -3 -26 -7z"/>
<path d="M4982 1060 c-11 -18 -10 -20 18 -20 28 0 30 2 20 20 -6 11 -14 20
-18 20 -4 0 -13 -9 -20 -20z"/>
<path d="M5077 924 c-14 -14 -7 -25 13 -22 12 2 21 8 21 13 0 12 -24 18 -34 9z"/>
<path d="M1391 1014 c0 -11 3 -14 6 -6 3 7 2 16 -1 19 -3 4 -6 -2 -5 -13z"/>
<path d="M1293 713 c9 -2 23 -2 30 0 6 3 -1 5 -18 5 -16 0 -22 -2 -12 -5z"/>
<path d="M6300 2800 c-14 -27 -13 -30 15 -30 14 0 25 5 25 11 0 5 5 7 10 4 6
-3 10 -3 10 2 0 4 -11 13 -25 20 -22 9 -27 8 -35 -7z"/>
<path d="M62 2780 c-16 -26 -16 -27 13 -27 33 0 39 10 17 30 -16 15 -19 15
-30 -3z"/>
<path d="M5495 2689 c-4 -12 -2 -26 4 -32 8 -8 11 -2 11 21 0 37 -6 41 -15 11z"/>
<path d="M1242 2540 c0 -14 2 -19 5 -12 2 6 2 18 0 25 -3 6 -5 1 -5 -13z"/>
<path d="M387 2520 c-3 -13 -3 -27 1 -30 4 -3 7 -11 8 -17 1 -7 2 -16 3 -21 2
-11 81 -2 81 10 0 6 -14 8 -33 5 -22 -3 -34 -1 -35 6 0 7 -5 25 -9 42 -9 30
-9 30 -16 5z"/>
<path d="M340 2514 c0 -8 5 -12 10 -9 6 3 10 10 10 16 0 5 -4 9 -10 9 -5 0
-10 -7 -10 -16z"/>
<path d="M967 2523 c-4 -3 -7 -11 -7 -17 0 -6 5 -5 12 2 6 6 9 14 7 17 -3 3
-9 2 -12 -2z"/>
<path d="M983 2505 c-3 -9 -3 -18 0 -21 9 -9 27 6 27 22 0 19 -19 18 -27 -1z"/>
<path d="M1155 2480 c3 -5 12 -7 20 -3 21 7 19 13 -6 13 -11 0 -18 -4 -14 -10z"/>
<path d="M1227 2463 c-4 -3 -7 -11 -7 -17 0 -6 5 -5 12 2 6 6 9 14 7 17 -3 3
-9 2 -12 -2z"/>
<path d="M276 2442 c-3 -6 -1 -14 5 -17 15 -10 25 3 12 16 -7 7 -13 7 -17 1z"/>
<path d="M960 2390 c0 -5 4 -10 9 -10 6 0 13 5 16 10 3 6 -1 10 -9 10 -9 0
-16 -4 -16 -10z"/>
<path d="M440 2361 c0 -10 9 -21 20 -24 18 -5 18 -4 3 19 -19 29 -23 30 -23 5z"/>
<path d="M1017 2373 c-13 -12 -7 -33 8 -33 8 0 15 9 15 20 0 20 -11 26 -23 13z"/>
<path d="M960 2330 c0 -5 10 -10 23 -10 18 0 19 2 7 10 -19 13 -30 13 -30 0z"/>
<path d="M3321 2114 c0 -11 3 -14 6 -6 3 7 2 16 -1 19 -3 4 -6 -2 -5 -13z"/>
<path d="M160 2086 c0 -2 7 -6 15 -10 8 -3 15 -1 15 4 0 6 -7 10 -15 10 -8 0
-15 -2 -15 -4z"/>
<path d="M6350 705 c0 -7 6 -18 13 -22 8 -4 19 -17 25 -28 10 -17 11 -14 12
23 0 38 -2 42 -25 42 -15 0 -25 -6 -25 -15z"/>
<path d="M6190 554 c0 -17 17 -36 24 -26 3 5 -1 15 -9 22 -8 7 -15 9 -15 4z"/>
<path d="M6140 500 c0 -5 5 -10 10 -10 6 0 10 5 10 10 0 6 -4 10 -10 10 -5 0
-10 -4 -10 -10z"/>
<path d="M6180 490 c0 -5 5 -10 10 -10 6 0 10 5 10 10 0 6 -4 10 -10 10 -5 0
-10 -4 -10 -10z"/>
<path d="M6370 464 c0 -8 5 -12 10 -9 6 3 10 10 10 16 0 5 -4 9 -10 9 -5 0
-10 -7 -10 -16z"/>
<path d="M80 269 c0 -5 5 -7 10 -4 6 3 10 8 10 11 0 2 -4 4 -10 4 -5 0 -10 -5
-10 -11z"/>
<path d="M170 216 c0 -13 3 -31 6 -40 11 -29 24 -16 24 24 0 29 -4 40 -15 40
-9 0 -15 -9 -15 -24z"/>
<path d="M6190 199 c0 -5 5 -7 10 -4 6 3 10 8 10 11 0 2 -4 4 -10 4 -5 0 -10
-5 -10 -11z"/>
<path d="M6040 174 c0 -8 5 -12 10 -9 6 3 10 10 10 16 0 5 -4 9 -10 9 -5 0
-10 -7 -10 -16z"/>
<path d="M5950 146 c0 -2 7 -7 16 -10 8 -3 12 -2 9 4 -6 10 -25 14 -25 6z"/>
<path d="M5982 121 c-11 -6 -10 -10 0 -19 11 -8 14 -7 14 9 0 10 0 19 -1 19 0
0 -6 -4 -13 -9z"/>
<path d="M671 111 c-7 -5 -10 -14 -7 -20 11 -17 23 -13 29 9 6 22 0 25 -22 11z"/>
<path d="M810 90 c-12 -8 -11 -10 8 -10 12 0 22 5 22 10 0 13 -11 13 -30 0z"/>
<path d="M1880 60 c0 -5 5 -10 10 -10 6 0 10 -7 10 -15 0 -8 -5 -14 -11 -13
-6 2 -13 -2 -16 -9 -2 -7 3 -10 14 -8 10 2 21 4 24 4 4 1 9 10 12 21 3 13 0
20 -9 20 -8 0 -14 5 -14 10 0 6 -4 10 -10 10 -5 0 -10 -4 -10 -10z"/>
<path d="M955 43 c-7 -21 -6 -23 8 -21 12 3 27 18 27 29 0 12 -29 5 -35 -8z"/>
<path d="M1582 33 c-30 -6 -23 -25 10 -29 21 -2 25 1 21 17 -3 10 -6 18 -7 18
0 -1 -11 -4 -24 -6z"/>
<path d="M1010 20 c0 -5 5 -10 10 -10 6 0 10 5 10 10 0 6 -4 10 -10 10 -5 0
-10 -4 -10 -10z"/>
</g>
</svg>
